<svg xmlns="http://www.w3.org/2000/svg" width="16.725" height="15.531" viewBox="0 0 16.725 15.531"><defs><style>.a{fill:#83b783;}.b{fill:#454545;}</style></defs><path class="a" d="M547.439,1499.1a6.513,6.513,0,0,1-2.9,5.008,6.638,6.638,0,0,1-4.186,1.145,29.764,29.764,0,0,1-.148,9.055l-1.287-.219a28.437,28.437,0,0,0,.12-8.791c.162-.047.321-.1.477-.161-.175-.036-.348-.08-.519-.132.016.1.03.2.042.293a6.609,6.609,0,0,1-4.635-.359,3.215,3.215,0,1,1,2.1-4.577,6.663,6.663,0,0,1,2.822,2.423,6.679,6.679,0,0,1,2.387-2.85A6.526,6.526,0,0,1,547.439,1499.1Z" transform="translate(-530.714 -1498.775)"/><path class="b" d="M549.585,1512.714c-.156.061-.315.115-.477.161-.012-.1-.026-.2-.042-.293C549.237,1512.634,549.41,1512.678,549.585,1512.714Z" transform="translate(-540.787 -1506.354)"/></svg>