<svg xmlns="http://www.w3.org/2000/svg" width="336.6180114746094" height="68.35099792480469" style=""><rect id="backgroundrect" width="100%" height="100%" x="0" y="0" fill="none" stroke="none"/><g class="currentLayer" style=""><title>Layer 1</title><path d="M282.635 29.533c-.345 2.9-2.724 9.348-5.393 11.631-3.93 4.5-12.114 2.612-11.061-4.036.347-3.638 2.587-9.888 5.565-12.471 4.3-4.435 12.158-2.086 10.888 4.876m8.039-11.021c-4.679-6.157-17.34-5.676-24.021-1.052-9.077 5.778-15.721 21.909-8.061 30.579 16.671 14.644 44.256-11.634 32.082-29.527M36.406 14.636l-2.695 9.032H22.145l-8.483 27.729H2.605l8.46-27.729H0l2.721-9.032zm23.45 10.457c-1.064 5.488-6.861 4.29-12.368 4.49l2.253-7.494c2.857.426 10.691-1.56 10.115 3m8.778-7.621c-3.18-5.126-22.552-2.045-27.673-2.835l-11.1 36.76h11.052L45.4 36.45c5.7-.518 6.078 10.845 7.958 14.943h11.648q-3.448-12.648-6.53-15.443c9.208-.734 15.264-11 10.162-18.481m17.834 20.113l7.413-13.39h.1l-.2 13.39zm17.958 13.814l-2.113-36.76H90.576L66.91 51.396h11.852l3.356-6.023h11.619l-.1 6.023zm49.204-36.76l-11.209 36.76h-10.3l-6.762-21.363h-.1l-6.483 21.363h-10.355l11.2-36.76h10.3l6.71 21.412h.1l6.539-21.412zm31.08 10.204l-10.359.579c.968-5.429-8.062-6.619-9.086-1.856 1.94 5.091 12.322 4.839 14.569 10.432 4.588 9.842-5.755 18.965-16.171 18.03-9.848.174-15.4-3.813-14.34-12.839l10.425-.732c-2.542 8.874 13.66 7.614 10 .325-2.793-2.254-12.939-5.433-13.5-7.593-5.666-8.951 4.763-18.116 14.112-17.176q14.463 0 14.345 10.829m18.744-10.203l-11.175 36.76H181.12l11.181-36.76zm38.274 0l-2.694 9.032h-11.568l-8.481 27.729h-11.06l8.463-27.729h-11.066l2.719-9.032zm15.766 0l-11.178 36.76h-11.156l11.18-36.76zm79.124 0l-11.2 36.76h-10.3l-6.766-21.363h-.1l-6.486 21.363h-10.351l11.2-36.76h10.307l6.705 21.412h.1l6.538-21.412zM5.58 68.176v-7.965H2.605v-1.069h7.161v1.069H6.778v7.965zm26.069 0v-9.034h6.533v1.069H32.85v2.764h5v1.064h-5v3.071h5.541v1.066zm35.417-3.168l1.2.3c-1.178 5.07-8.607 3.192-7.987-1.718-.557-4.589 6.519-6.59 7.833-1.973l-1.175.278c-1.071-3.568-5.961-1.573-5.426 1.689-.608 3.7 4.776 5.369 5.557 1.42m23.079 3.172v-9.034h1.195v3.711h4.7v-3.711h1.192v9.034h-1.192v-4.255h-4.7v4.255zm28.972 0v-9.034h1.228l4.748 7.094v-7.094h1.142v9.034h-1.226l-4.747-7.1v7.1zm35.537-1.816c-3.558 3.463-7.141-2.751-4.388-5.475 3.563-3.208 7.022 2.653 4.388 5.475m1.576-5.115c-2.983-5.317-10.425-.376-7.593 4.788 2.969 5.42 10.474.285 7.593-4.788m22.412 6.931v-9.034h1.2v7.968h4.451v1.066zm34.068-1.816c-3.553 3.464-7.142-2.75-4.387-5.475 3.558-3.208 7.023 2.655 4.387 5.475m1.577-5.115c-2.978-5.318-10.429-.371-7.591 4.788 2.968 5.42 10.469.285 7.591-4.788m26.938 3.389v-1.06l3.829-.007v3.352c-4.091 3.787-10.482-.588-7.805-5.676 1.316-3.054 7-3.154 7.667.427l-1.081.3c-.341-1.865-2.523-2.313-4.03-1.705-4.609 2.531-.131 9.724 4.074 6.053v-1.68zm25.716-5.492h1.194v9.034h-1.195zm23.076 9.034v-9.034h6.532v1.069h-5.339v2.764h5v1.064h-5v3.071h5.548v1.066zm28.626-2.901l1.128-.1c-.073 3.708 7.7 1.71 3.852-.728-1.074-.417-3.708-.658-4.319-1.842-2.035-4.145 6.282-5.077 6.258-.919l-1.145.086c-.541-4.108-7.8.081-2.122 1.072 1.593.4 2.36.477 3.165 1.491 2.314 4.613-6.93 5.592-6.817.937" fill-rule="evenodd" fill="#ffffff" id="svg_1" class="" fill-opacity="1"/><path d="M313.367 6.125c-3.926 3.16-6-2.37-4.1-5.347 1.3-1.468 4.216-.783 4.1 1.5h-1.332a.964.964 0 00-1.745-.712c-.518 1.243-.68 5.4 1.7 4.041v-1.25h-.96V3.325h2.333zm2.816-2.852c2.2.451 2.154-2.508 0-2.02zm.681 1.14h-.681V6.89h-1.368V.108c.981.064 3.082-.264 3.772.532.9.806.7 2.912-.422 3.405 0 .065 1.238 2.771 1.187 2.84h-1.471zm8.109-4.301c-.3 1.882 1.153 7.154-2.225 6.87-3.4.295-1.946-4.982-2.24-6.87h1.378c.32.867-.83 5.9.861 5.734 1.678.181.542-4.9.857-5.734zm2.884 3.254c2.443.5 2.375-2.592 0-2.113zm0 1.14v2.383h-1.37V.112h2.31c3.534.139 2.436 5.336-.94 4.393zm5.368-.144h1.266l-.634-2.415zm1.568 1.14h-1.865l-.365 1.388h-1.447l2.118-6.778h1.251l2.132 6.778h-1.461z" fill="#ffffff" id="svg_2" class="selected" fill-opacity="1"/></g></svg>