<svg xmlns="http://www.w3.org/2000/svg" width="62.662" height="23.976" viewBox="0 0 62.662 23.976"><defs><style>.a{fill:#585858;}</style></defs><g transform="translate(0)"><path class="a" d="M65.889,414.086V402.609c.24-.018.439-.046.638-.046,2.214,0,4.427.01,6.64-.011a.815.815,0,0,1,.891.576A7.759,7.759,0,0,1,68.3,413.944c-.181.033-.356.094-.534.142Z" transform="translate(-31.678 -390.111)"/><path class="a" d="M97.225,414.083c-.018-.206-.052-.413-.052-.618,0-3.391.008-6.782-.013-10.172,0-.547.122-.759.723-.749,2.19.036,4.382.031,6.573,0a.845.845,0,0,1,.922.62,7.758,7.758,0,0,1-5.744,10.772c-.179.033-.354.1-.53.146Z" transform="translate(-43.339 -390.108)"/><path class="a" d="M11.335,414.039c1.3-3.658,2.62-7.311,3.9-10.979a.807.807,0,0,1,.934-.636c2,.028,4.006.012,6.008.012h.719v6.48c-1.049,0-2.084.027-3.115-.011a.786.786,0,0,0-.934.647c-.464,1.506-.991,2.993-1.494,4.488Z" transform="translate(-11.335 -390.063)"/><path class="a" d="M36.64,414.044c-.537-1.613-1.063-3.23-1.633-4.832-.052-.148-.384-.273-.589-.278-1.079-.028-2.159-.013-3.279-.013v-6.481h1.19c1.9,0,3.8-.011,5.7.014a.778.778,0,0,1,.608.324c1.359,3.748,2.688,7.508,4.022,11.265Z" transform="translate(-18.72 -390.069)"/><path class="a" d="M53.1,414.066V402.5h7.236v.706q0,5.089,0,10.179c0,.228.021.455.031.684Z" transform="translate(-26.909 -390.091)"/><path class="a" d="M84.463,414.069q-.01-5.642-.018-11.285a1.86,1.86,0,0,1,.045-.278h7.091a3.381,3.381,0,0,1,.063.468q0,5.363,0,10.725a3.377,3.377,0,0,1-.039.371Z" transform="translate(-38.597 -390.094)"/><path class="a" d="M60.338,394.3H53.2V382.789h7.141Z" transform="translate(-26.945 -382.742)"/><path class="a" d="M91.624,394.3H84.5V382.789h7.123Z" transform="translate(-38.618 -382.742)"/><path class="a" d="M70.626,391.879l2.659,2.2-.1.172H65.954V382.821c2.684-.405,4.811.33,6.051,2.441C73.3,387.459,72.817,389.662,70.626,391.879Z" transform="translate(-31.702 -382.714)"/><path class="a" d="M101.956,391.887l2.652,2.207-.1.166H97.262V382.82c2.658-.384,4.735.292,6,2.346C104.612,387.362,104.2,389.4,101.956,391.887Z" transform="translate(-43.377 -382.715)"/><path class="a" d="M25.53,382.728v11.546H18.393c.048-.175.083-.347.142-.512,1.245-3.5,2.5-7,3.735-10.5.135-.382.294-.573.744-.548C23.824,382.76,24.638,382.728,25.53,382.728Z" transform="translate(-13.967 -382.714)"/><path class="a" d="M31.133,382.733c.961,0,1.837-.033,2.707.025.189.013.439.319.519.541,1.064,2.925,2.1,5.86,3.147,8.792.256.717.509,1.436.774,2.185H31.133Z" transform="translate(-18.718 -382.717)"/></g></svg>