<svg xmlns="http://www.w3.org/2000/svg" width="67.659" height="24.532" viewBox="0 0 67.659 24.532"><defs><style>.a{fill:#585858;}</style></defs><g transform="translate(0)"><path class="a" d="M5450.528,2352.45c.481-.435.888-.846,1.339-1.2a17.478,17.478,0,0,1,6.686-3.1,19.173,19.173,0,0,1,6.817-.52c.839.1,1.666.3,2.5.456a.674.674,0,0,0,.4,0c-.158-.083-.314-.171-.475-.248a53.258,53.258,0,0,0-11.618-3.989,43.938,43.938,0,0,0-10.566-1.086,31.422,31.422,0,0,0-21.6,8.663c-.75.708-1.445,1.475-2.166,2.215a1.076,1.076,0,0,1-.286.269.42.42,0,0,1-.359-.007.384.384,0,0,1-.044-.344,2.8,2.8,0,0,1,.3-.513,27.234,27.234,0,0,1,16.7-11.892,34.553,34.553,0,0,1,11.945-.854,42.437,42.437,0,0,1,22.34,8.823,2.115,2.115,0,0,1,.476.416.658.658,0,0,1,.123.522.573.573,0,0,1-.473.248c-.458-.049-.908-.173-1.362-.266a35.583,35.583,0,0,0-12.483-.443,19.022,19.022,0,0,0-6.942,2.266c-.354.208-.694.438-1.041.656C5450.722,2352.525,5450.689,2352.5,5450.528,2352.45Z" transform="translate(-5421.128 -2340.118)"/><path class="a" d="M5546.269,2477.359h.557q2.385,0,4.77,0c.667,0,.9.291.788.953-.053.3-.1.6-.157.9-.166.846-.437,1.067-1.292,1.067-1.577,0-3.154.01-4.73-.007-.362,0-.519.1-.563.471a15.071,15.071,0,0,1-.287,1.561c-.075.33,0,.454.356.442.7-.022,1.4-.006,2.106-.006h7.792c.8,0,1,.234.857,1.009-.069.377-.135.756-.212,1.132a.979.979,0,0,1-1.085.876q-2.464,0-4.929,0h-8.347c-.757,0-.974-.271-.837-1.013q1.085-5.913,2.165-11.827a1.035,1.035,0,0,1,1.213-1.015q6.6,0,13.2,0c.764,0,.98.267.829,1.005-.07.349-.124.7-.2,1.053a1.007,1.007,0,0,1-1.176.962q-4.849,0-9.7,0c-.7,0-.655-.155-.786.647C5546.507,2476.146,5546.389,2476.714,5546.269,2477.359Z" transform="translate(-5531.475 -2461.415)"/><path class="a" d="M6111.333,2527c-.389.2-.744.4-1.109.575a7.339,7.339,0,0,1-5.175.576,2.216,2.216,0,0,1-1.86-1.639,2.668,2.668,0,0,1,.93-2.642,5.645,5.645,0,0,1,2.93-1.225c1.318-.226,2.643-.412,3.961-.634a4.546,4.546,0,0,0,.905-.282.757.757,0,0,0,.449-.848c-.025-.349-.29-.5-.584-.565a3.237,3.237,0,0,0-2.9.492,2.023,2.023,0,0,1-1.4.465c-.7-.024-1.405.012-2.105-.017a.757.757,0,0,1-.562-.254.736.736,0,0,1,.1-.607,4.587,4.587,0,0,1,3.079-2,14.421,14.421,0,0,1,6.188-.03,3.76,3.76,0,0,1,.567.175,2.354,2.354,0,0,1,1.708,2.977c-.232,1.4-.488,2.788-.75,4.179a3.581,3.581,0,0,0,.018,1.685.563.563,0,0,1-.556.8c-.991.036-1.988.045-2.978-.009-.227-.012-.474-.291-.643-.5A2.118,2.118,0,0,1,6111.333,2527Zm.48-3.172c-.664.066-1.31.1-1.946.2a10.557,10.557,0,0,0-1.732.386.964.964,0,0,0-.739,1.082.985.985,0,0,0,.956.806,4.429,4.429,0,0,0,1.219-.019A2.473,2.473,0,0,0,6111.813,2523.832Z" transform="translate(-6048.853 -2503.887)"/><path class="a" d="M5940.336,2525.9c-1.311,0-2.622.01-3.934-.007-.344,0-.433.134-.431.444a1.709,1.709,0,0,0,1.841,1.631,4.139,4.139,0,0,0,2.6-.835,1.92,1.92,0,0,1,1.223-.372c.7.02,1.4-.011,2.1.016.2.008.522.1.561.232a.777.777,0,0,1-.182.621,7.325,7.325,0,0,1-3.886,2.255,10.426,10.426,0,0,1-5.682-.084c-2.7-.854-3.436-3-2.635-5.429a5.619,5.619,0,0,1,3.2-3.447,10.11,10.11,0,0,1,7.363-.39,3.663,3.663,0,0,1,2.736,2.956,6.77,6.77,0,0,1,.036,1.5.863.863,0,0,1-.982.9C5942.959,2525.906,5941.647,2525.9,5940.336,2525.9Zm-4.077-1.827c.068.043.09.069.112.069,1.535.006,3.07.014,4.6,0,.087,0,.235-.158.247-.255a1.431,1.431,0,0,0-1.29-1.619,5.153,5.153,0,0,0-1.725.009A2.5,2.5,0,0,0,5936.26,2524.074Z" transform="translate(-5890.984 -2505.707)"/><path class="a" d="M5750.959,2520.154c.326-.228.549-.388.774-.541a7.777,7.777,0,0,1,4.094-1.471,3.636,3.636,0,0,1,4.02,4.284c-.205,1.731-.575,3.443-.885,5.161a.885.885,0,0,1-.851.715c-.795.022-1.59.025-2.385,0-.484-.014-.674-.342-.57-.918.153-.846.331-1.689.467-2.537a11.418,11.418,0,0,0,.266-2.235,2.042,2.042,0,0,0-2.738-1.961,3.7,3.7,0,0,0-2.832,3c-.271,1.268-.479,2.548-.721,3.822a.92.92,0,0,1-.992.833c-.716.009-1.431.011-2.146,0a.629.629,0,0,1-.683-.83q.738-4.02,1.48-8.04c.145-.782.413-1,1.214-1,.65,0,1.3,0,1.948,0,.564.005.787.283.688.844C5751.064,2519.537,5751.024,2519.781,5750.959,2520.154Z" transform="translate(-5719.922 -2503.972)"/></g></svg>