<svg xmlns="http://www.w3.org/2000/svg" width="62.63" height="26.269" viewBox="0 0 62.63 26.269"><defs><style>.a{fill:#585858;}</style></defs><path class="a" d="M587.6,61.932c-7.073-7.116-17.41-10.7-26.913-11.269l1.055-2.99a40.237,40.237,0,0,1,27.207,14.258Z" transform="translate(-526.318 -45.472)"/><path class="a" d="M48.05,12.567,46.1,17.758l-1.039-.011.618-1.78C33.846,15.792,21.762,19.9,14.136,29.025H12.66C20.9,17.684,33.836,12.617,48.05,12.566Z" transform="translate(-12.66 -12.566)"/><path class="a" d="M221.62,243.154H231l-.7,2.328h-6.694l-.6,2.067,5.732,0-.682,2.314-5.734,0-.812,2.811h6.712l-.666,2.272h-9.392l3.451-11.787Zm-6.932,2.328,4.363,0,.682-2.327-3.913,0c-4.059-.02-8.153,1.051-9.493,5.637-.939,3.214.657,5.708,4.058,6.153l5.888-.007,1.776-6.054c-2.245-.08-2.762.747-3.195,2.122l-.495,1.7-2.766,0a2.689,2.689,0,0,1-2.692-3.324c.572-2.535,2.951-3.9,5.786-3.9Zm-14.025,3.387c2.98.034,4.092-3.375,1.494-3.375l-6.071-.023.678-2.3,5.458,0c6.583,0,3.861,8-1.745,8.009l-2.632,0a1.68,1.68,0,0,0-1.679,1.121l-.775,2.664-2.609,0,.844-2.9a4.236,4.236,0,0,1,4.469-3.182l2.567-.009Z" transform="translate(-181.486 -228.692)"/></svg>