<svg xmlns="http://www.w3.org/2000/svg" width="48.692" height="32.672" viewBox="0 0 48.692 32.672"><defs><style>.a{fill:#585858;}</style></defs><g transform="translate(0)"><path class="a" d="M6872.4,2099.315a5.623,5.623,0,0,1-1.9,2.637,10.084,10.084,0,0,1-5.033,1.988,10.577,10.577,0,0,1-4.939-.322,5.266,5.266,0,0,1-3.86-4,5.97,5.97,0,0,1,1.029-4.595,11.208,11.208,0,0,1,5.544-4.206c2.2-.851,4.429-1.6,6.625-2.448a13.53,13.53,0,0,0,4.753-2.824,7.348,7.348,0,0,1,.669-.626c-.049.125-.093.251-.146.374a8.844,8.844,0,0,1-3.479,3.871,22.981,22.981,0,0,1-4.231,1.962,17.8,17.8,0,0,0-4.719,2.415,7.035,7.035,0,0,0-1.9,2.194,4.036,4.036,0,0,0,2.681,6.1,9.363,9.363,0,0,0,8.527-2.166C6872.155,2099.557,6872.278,2099.433,6872.4,2099.315Z" transform="translate(-6839.425 -2084.914)"/><path class="a" d="M6915.082,2360.241c-.4,2.341-.774,4.587-1.158,6.856h-2.589a3.116,3.116,0,0,1,.027-.328c.616-3.218,1.239-6.434,1.845-9.653.052-.276.161-.355.424-.35.691.013,1.383.017,2.073,0a.475.475,0,0,1,.536.358c.876,2.255,1.767,4.5,2.635,6.706.385-2.3.779-4.655,1.178-7.032h2.631c-.077.427-.147.833-.224,1.238-.547,2.859-1.1,5.717-1.638,8.579-.072.389-.209.543-.624.521-.676-.037-1.356-.019-2.033-.006a.437.437,0,0,1-.485-.316c-.758-1.884-1.535-3.761-2.3-5.644C6915.272,2360.9,6915.2,2360.607,6915.082,2360.241Z" transform="translate(-6889.738 -2334.618)"/><path class="a" d="M6781.994,2361.616h-1.558c.11-.55.2-1.055.319-1.554a.333.333,0,0,1,.226-.214c1.312-.013,2.625-.01,4.02-.01l-.988,5.194c-1.767-.174-3.479.556-5.229.16a8.291,8.291,0,0,1-1.513-.451,3.929,3.929,0,0,1-2.319-4.536,6.375,6.375,0,0,1,4.639-5.106,9.847,9.847,0,0,1,5.889-.075c.266.074.352.179.285.453-.115.469-.2.944-.294,1.408-.645-.128-1.234-.284-1.834-.356a6.241,6.241,0,0,0-3.419.452,4.189,4.189,0,0,0-2.458,4.209,2.307,2.307,0,0,0,1.75,2.106,7.838,7.838,0,0,0,1.848.088c.124,0,.313-.2.353-.342C6781.83,2362.6,6781.894,2362.145,6781.994,2361.616Z" transform="translate(-6764.39 -2332.639)"/><path class="a" d="M7123.093,2356.8c-1.008-.089-1.957-.22-2.908-.242a4.762,4.762,0,0,0-2.448.636,4.081,4.081,0,0,0-2.177,3.616A2.463,2.463,0,0,0,7118,2363.5a3.175,3.175,0,0,0,1.247-.071c.507-.155.281-.718.427-1.083a3.534,3.534,0,0,0,.124-.649h-1.562c.117-.577.213-1.091.333-1.6a.3.3,0,0,1,.212-.184c1.3-.011,2.6-.008,3.923-.008a2.139,2.139,0,0,1,0,.308c-.268,1.506-.545,3.01-.8,4.519-.052.306-.178.358-.482.367-.8.024-1.591.1-2.382.2a7.93,7.93,0,0,1-3.261-.219,4.022,4.022,0,0,1-3-4.906,6.3,6.3,0,0,1,4.257-4.876,9.739,9.739,0,0,1,6-.276c.306.077.391.209.32.51C7123.243,2355.972,7123.168,2356.426,7123.093,2356.8Z" transform="translate(-7074.683 -2332.698)"/><path class="a" d="M6649.6,2363.569c-.2,1-.382,1.98-.581,2.957-.14.687,0,.581-.7.59-.637.007-1.274,0-1.912-.008a.945.945,0,0,1-.178-.057c.088-.467.176-.939.266-1.41.541-2.82,1.09-5.637,1.616-8.46.064-.343.2-.434.528-.423,1.531.047,3.063.049,4.592.114a4.949,4.949,0,0,1,1.383.3,2.472,2.472,0,0,1,1.657,3.233,4.013,4.013,0,0,1-3.135,2.823,21.584,21.584,0,0,1-2.813.34A7.18,7.18,0,0,1,6649.6,2363.569Zm.321-1.67a5.948,5.948,0,0,0,2.61-.316,1.809,1.809,0,0,0,1.14-1.426,1.192,1.192,0,0,0-.835-1.505,5.964,5.964,0,0,0-2.254-.183Z" transform="translate(-6646.233 -2334.611)"/><path class="a" d="M7050.975,2397.972h2.606c-.162.833-.317,1.639-.474,2.444-.271,1.38-.553,2.757-.806,4.14-.062.335-.2.439-.533.427-.7-.025-1.4-.007-2.171-.007C7050.063,2402.6,7050.515,2400.3,7050.975,2397.972Z" transform="translate(-7016.737 -2372.469)"/><path class="a" d="M6950.649,2150.627c.232-.2.457-.416.7-.6a11.107,11.107,0,0,1,2.9-1.527c1.15-.432,2.3-.874,3.417-1.385a8.527,8.527,0,0,0,3.155-2.424,6.086,6.086,0,0,1-1.6,2.725,11.164,11.164,0,0,1-5.68,2.973c-.8.184-1.631.243-2.447.353a2.917,2.917,0,0,1-.392,0Z" transform="translate(-6925.85 -2139.818)"/><path class="a" d="M6954.188,2205.078a5.741,5.741,0,0,1-1.335,2.387,7.864,7.864,0,0,1-5.925,2.576,2.714,2.714,0,0,1-1.856-.591,3.384,3.384,0,0,1-.615-.8A11.991,11.991,0,0,0,6954.188,2205.078Z" transform="translate(-6920.161 -2195.289)"/><path class="a" d="M7073.057,2357.082c-.129.631-.241,1.209-.371,1.784a.261.261,0,0,1-.189.161c-.794.011-1.587.007-2.433.007.126-.628.233-1.2.363-1.776a.3.3,0,0,1,.226-.168C7071.434,2357.077,7072.213,2357.082,7073.057,2357.082Z" transform="translate(-7035.538 -2334.908)"/></g></svg>