<svg xmlns="http://www.w3.org/2000/svg" width="50.484" height="26.199" viewBox="0 0 50.484 26.199"><defs><style>.a{fill:#585858;}</style></defs><path class="a" d="M474.342,255.966a2.216,2.216,0,0,0-1.3-.371,2.29,2.29,0,0,0-1.374.452v-3.308h-1.638v10.79h1.638V257.9a.907.907,0,0,1,.941-.851,1,1,0,0,1,.838.391,2.043,2.043,0,0,1,.191,1.145l0,4.947h1.637v-5.01c0-1.477-.192-2-.933-2.553" transform="translate(-440.191 -245.911)"/><path class="a" d="M364.459,281.389c0,1.057-.033,1.354-.042,1.446-.056.585-.306,1.206-.988,1.206s-.959-.663-.988-1.235c0,0-.042-.36-.042-1.417s.041-1.5.042-1.5c.008-.6.317-1.192.988-1.192s.98.6.987,1.186c0,.009.042.45.042,1.507m1.584-1.273c-.232-2.307-1.542-2.8-2.616-2.8-1.523,0-2.452.969-2.619,2.8-.012.146-.037.415-.045,1.275-.005.628.034,1.144.042,1.274a2.625,2.625,0,1,0,5.243,0c.007-.121.042-.644.042-1.273C366.089,281.106,366.064,280.334,366.042,280.116Z" transform="translate(-343.625 -267.629)"/><path class="a" d="M526.4,280.418c.012-.357.012-.432.019-.536.047-.646.335-1.181,1-1.186.786-.006.97.764,1,1.19.016.224.032.374.03.533H526.4m2.021,2.161a2.146,2.146,0,0,1-.014.267c-.045.381-.2,1.194-.994,1.194-.679,0-.938-.618-.984-1.232a10.156,10.156,0,0,1-.04-1.033h3.65s.006-.543,0-.869c-.005-.128-.012-.342-.043-.793a3.66,3.66,0,0,0-.7-1.936,2.33,2.33,0,0,0-1.876-.864c-1.474,0-2.4.958-2.577,2.8a11.306,11.306,0,0,0-.043,1.275c0,.628.034,1.153.042,1.274a2.6,2.6,0,0,0,2.579,2.761c1.484,0,2.477-1.053,2.58-2.843Z" transform="translate(-488.588 -267.629)"/><path class="a" d="M225.339,195.332h26.6l10.173,11.9-10.171,11.738H225.338l-10.212-11.778,10.213-11.861m27.248-1.322H224.7l-11.317,13.141L224.7,220.209h27.888l11.278-13.014Z" transform="translate(-213.379 -194.01)"/><path class="a" d="M306.778,254.857h.775a1.173,1.173,0,0,1,1.32,1.244c0,.059.009.126.009.25a2.111,2.111,0,0,1-.009.252,1.247,1.247,0,0,1-1.241,1.3h-.854v-3.047m3.878,8.658-.169-2.65c-.073-1.185-.382-1.882-.994-2.24a2.488,2.488,0,0,0,1.011-2.3,2.588,2.588,0,0,0-2.841-2.846h-2.5v10.7h1.616v-4.9h.9c.52,0,1.107.455,1.2,1.732l.169,2.507a4.075,4.075,0,0,0,.08.659h1.617A3.8,3.8,0,0,1,310.656,263.515Z" transform="translate(-294.49 -246.563)"/><path class="a" d="M419.376,282.505c-.006.119-.013.226-.02.3-.046.6-.258,1.235-.989,1.235-.681,0-.951-.69-1-1.2-.03-.307-.023-.546-.029-1.455a13.124,13.124,0,0,1,.042-1.5c.058-.668.318-1.186.988-1.192.69,0,.981.6.989,1.186,0,.005.013.148.025.462H421c0-.108-.009-.2-.014-.251-.184-2.236-1.546-2.777-2.622-2.777-1.523,0-2.451.969-2.619,2.8-.013.146-.036.415-.044,1.275-.005.628.034,1.144.042,1.274a2.6,2.6,0,0,0,2.621,2.761c1.592.005,2.469-.965,2.622-2.762a.83.83,0,0,0,.009-.156h-1.62" transform="translate(-392.178 -267.629)"/></svg>