<svg xmlns="http://www.w3.org/2000/svg" width="71.957" height="21.369" viewBox="0 0 71.957 21.369"><defs><style>.a{fill:#585858;}</style></defs><g transform="translate(0)"><path class="a" d="M5439.408,1613.858c.465.268.917.55,1.39.8a4.735,4.735,0,0,0,3.162.547,1.577,1.577,0,0,0,.589-.239.837.837,0,0,0,.074-1.338,3.253,3.253,0,0,0-.846-.507c-.876-.374-1.782-.685-2.646-1.083a3.164,3.164,0,0,1-1.865-2.056,3.026,3.026,0,0,1,1.682-3.774,6.163,6.163,0,0,1,3.345-.474,9.873,9.873,0,0,1,2.814.745.339.339,0,0,1,.247.369c-.012.631,0,1.263,0,1.942-.116-.027-.2-.039-.273-.065-.78-.27-1.549-.589-2.346-.8a2.976,2.976,0,0,0-2.17.125.736.736,0,0,0-.04,1.389,13.649,13.649,0,0,0,1.625.718,9.473,9.473,0,0,1,2.521,1.267,3.261,3.261,0,0,1-1.2,5.653,7.338,7.338,0,0,1-5.925-.7.354.354,0,0,1-.17-.239c-.013-.731-.009-1.462-.006-2.193C5439.359,1613.917,5439.386,1613.893,5439.408,1613.858Z" transform="translate(-5439.123 -1605.683)"/><path class="a" d="M5741.422,1786.956c.141-.288.249-.536.385-.767a.34.34,0,0,1,.249-.1c.419-.01.839-.01,1.258,0a.269.269,0,0,0,.316-.222c.057-.212.145-.416.241-.684h-1.415c.114-.173.173-.28.249-.373a8.75,8.75,0,0,1,4.351-3.02,4.688,4.688,0,0,1,3.534.136,2.751,2.751,0,0,1,1.586,2.143,11.733,11.733,0,0,1,.016,1.653c0,.218-.1.281-.311.278-.595-.009-1.19.007-1.785-.007-.233-.006-.368.05-.408.3-.03.189-.1.372-.16.619h2.361c-.17.345-.289.616-.438.868-.033.054-.177.056-.271.057-.527.005-1.054.009-1.581,0-.217,0-.347.054-.386.29a5.552,5.552,0,0,1-.179.623h1.774l.059.119c-.474.51-.923,1.045-1.427,1.524a8.077,8.077,0,0,1-3.619,2,4.582,4.582,0,0,1-2.79-.057,2.968,2.968,0,0,1-2.047-2.9c-.006-.388.047-.776.071-1.165.015-.237.12-.334.374-.322.458.022.917,0,1.375.01.218.005.352-.06.4-.286a2.567,2.567,0,0,1,.143-.413c.085-.205.028-.285-.2-.28-.5.01-1,.006-1.494,0A2.221,2.221,0,0,1,5741.422,1786.956Zm2.508,3.371.008.071a14.121,14.121,0,0,0,1.959-.257,2.646,2.646,0,0,0,2.05-2.1c.188-.865.453-1.714.665-2.574a.368.368,0,0,1,.43-.328c.361.012.723.015,1.083-.006.1-.006.263-.088.287-.168.093-.306.142-.626.207-.941.033-.156-.012-.239-.19-.238-.839.007-1.68-.022-2.517.018a2.84,2.84,0,0,0-2.429,2c-.207.861-.4,1.726-.6,2.589a.494.494,0,0,1-.532.437c-.39,0-.781-.009-1.17.011a.366.366,0,0,0-.28.168c-.116.35-.195.712-.289,1.07-.045.176.016.253.2.249C5743.188,1790.322,5743.559,1790.328,5743.93,1790.328Z" transform="translate(-5723.301 -1771.213)"/><path class="a" d="M6249.045,1612.08v-.363c0-1.092.005-2.183-.007-3.275,0-.247.054-.346.322-.338.574.019,1.151.02,1.726,0,.3-.012.379.086.378.38q-.014,5.1-.006,10.205a5.112,5.112,0,0,1-.008.642.3.3,0,0,1-.2.2c-.663.015-1.326.005-1.989.009-.168,0-.227-.074-.218-.231,0-.1,0-.2,0-.351a1.852,1.852,0,0,0-.219.115,3.42,3.42,0,0,1-4.927-1.16,4.486,4.486,0,0,1,.029-4.577,3.347,3.347,0,0,1,2.931-1.686,4.281,4.281,0,0,1,1.936.357A2.583,2.583,0,0,0,6249.045,1612.08Zm0,3.5q0-.658,0-1.316c0-.584,0-.584-.533-.8l-.027-.013a1.819,1.819,0,0,0-2.547,1.116,3.526,3.526,0,0,0-.057,2.015,1.77,1.77,0,0,0,2.987.946.556.556,0,0,0,.168-.366C6249.055,1616.633,6249.044,1616.106,6249.045,1615.58Z" transform="translate(-6196.169 -1607.957)"/><path class="a" d="M5737.154,1612.969a2.965,2.965,0,0,1,.216-.3,2.915,2.915,0,0,1,4.229-.11,2.875,2.875,0,0,1,.743,2.039c.027.76,0,1.521.01,2.282,0,.179-.061.237-.236.29-.688.208-1.365.447-2.047.674a1.473,1.473,0,0,1-.145.029c-.007-.14-.02-.261-.02-.383,0-.771.006-1.541,0-2.312a3.286,3.286,0,0,0-.074-.667,1.181,1.181,0,0,0-1.944-.721,4.749,4.749,0,0,0-.752.811.664.664,0,0,0-.083.385c-.005,1.414-.008,2.829,0,4.242,0,.26-.062.364-.343.353-.584-.021-1.171-.014-1.756,0-.221,0-.313-.056-.313-.294q.01-5.413,0-10.825c0-.22.083-.289.293-.286.6.009,1.21.012,1.815,0,.233,0,.3.078.3.305-.008,1.375,0,2.75,0,4.125v.288Z" transform="translate(-5717.326 -1608.029)"/><path class="a" d="M6035.648,1673.111a2.16,2.16,0,0,0,2.008,2.07,4.175,4.175,0,0,0,2.879-.751c.132-.091.27-.175.468-.3,0,.533.013,1-.013,1.457,0,.09-.159.187-.262.254a5.129,5.129,0,0,1-2.529.818,6.157,6.157,0,0,1-2.649-.327,3.784,3.784,0,0,1-2.374-4.417,3.932,3.932,0,0,1,4.642-3.205,3.8,3.8,0,0,1,3.307,3.761c.024.634.029.631-.605.63q-2.283,0-4.567,0C6035.857,1673.095,6035.761,1673.1,6035.648,1673.111Zm1.69-1.317c.468,0,.937,0,1.4,0,.155,0,.25-.041.215-.218a1.693,1.693,0,0,0-.823-1.251,1.633,1.633,0,0,0-2.431,1.234c-.03.194.06.237.229.235C6036.4,1671.791,6036.871,1671.794,6037.338,1671.794Z" transform="translate(-5998.31 -1664.971)"/><path class="a" d="M6407.715,1674.186c0,.454.006.917-.006,1.379,0,.056-.088.12-.148.163a4.843,4.843,0,0,1-2.356.877,6.044,6.044,0,0,1-3.155-.382,3.725,3.725,0,0,1-2.25-3.614,3.868,3.868,0,0,1,1.854-3.383,4.2,4.2,0,0,1,2.929-.522,3.634,3.634,0,0,1,2.844,2.085,4.725,4.725,0,0,1,.425,2.071c0,.23-.13.215-.284.215q-2.414,0-4.827,0c-.432,0-.432,0-.345.417a2.177,2.177,0,0,0,2.007,1.677,4.391,4.391,0,0,0,3.043-.891,1.963,1.963,0,0,1,.171-.107C6407.63,1674.163,6407.654,1674.175,6407.715,1674.186Zm-3.678-2.415h0c.468,0,.935,0,1.4,0,.13,0,.269,0,.232-.2a1.646,1.646,0,0,0-1.592-1.464,1.609,1.609,0,0,0-1.666,1.432c-.036.2.062.234.226.233C6403.1,1671.769,6403.571,1671.771,6404.038,1671.771Z" transform="translate(-6343.514 -1664.95)"/><path class="a" d="M5887.626,1675.119a4.037,4.037,0,0,0-2.28-1.1c-.065-.011-.15-.163-.154-.25-.013-.556,0-1.112,0-1.667,0-1.024.005-2.048,0-3.072,0-.229.064-.3.3-.3q.922.023,1.844,0c.24-.006.31.09.3.308s0,.456,0,.756a3.571,3.571,0,0,1,1.511-1.045,2.743,2.743,0,0,1,3.751,2.549c.037,1.628,0,3.257.01,4.886,0,.211-.059.292-.283.288-.605-.013-1.21-.014-1.814,0-.254.007-.313-.091-.312-.324.007-1.365.013-2.73,0-4.1a3.989,3.989,0,0,0-.146-1.062,1.125,1.125,0,0,0-1.629-.615,2.6,2.6,0,0,0-1.039,1.082.565.565,0,0,0-.04.283c0,1.014-.005,2.028-.007,3.042Z" transform="translate(-5859.05 -1664.913)"/><path class="a" d="M5604.136,1670.759c-.393-.131-.734-.266-1.087-.359a3.231,3.231,0,0,0-1.817.025,2.1,2.1,0,0,0-1.43,2.143c.058,1.622,1.34,2.434,2.978,2.1.483-.1.95-.272,1.478-.426,0,.433,0,.846,0,1.259,0,.487,0,.491-.462.636a6.321,6.321,0,0,1-4.051.047,3.753,3.753,0,0,1-2.527-4.107,3.884,3.884,0,0,1,3.207-3.487,5.881,5.881,0,0,1,2.779.108c.254.066.507.139.755.225.07.024.168.107.17.165C5604.141,1669.639,5604.136,1670.189,5604.136,1670.759Z" transform="translate(-5587.934 -1664.792)"/><path class="a" d="M6559.39,1670.621c.089-.155.139-.252.2-.343a9.821,9.821,0,0,1,.863-1.276,1.764,1.764,0,0,1,2.421-.359c.6.333.6.332.4.981-.159.51-.312,1.021-.475,1.557-.275-.139-.521-.271-.771-.388a1.287,1.287,0,0,0-1.687.336,3.47,3.47,0,0,0-.974,2.457c.037.758,0,1.52.012,2.281,0,.246-.062.348-.33.34-.6-.019-1.209-.014-1.813,0-.223,0-.31-.059-.309-.3q.01-3.553,0-7.106c0-.251.076-.345.336-.338.6.017,1.209.017,1.814,0,.241-.006.3.087.3.306-.015.555-.013,1.11-.016,1.666A1.218,1.218,0,0,0,6559.39,1670.621Z" transform="translate(-6491.434 -1664.65)"/><path class="a" d="M6187.89,1674.705c0,1.19-.008,2.38,0,3.57,0,.243-.071.323-.316.316-.614-.017-1.229-.016-1.845-.01-.209,0-.295-.069-.295-.287q.01-3.614,0-7.227c0-.174.061-.248.237-.246.664,0,1.327.006,1.991,0,.248,0,.222.161.222.317v3.57Z" transform="translate(-6141.714 -1667.002)"/><path class="a" d="M5979.416,1828.623c0,.2-.008.405,0,.606.012.227-.123.247-.3.246-.692,0-1.384.007-2.076-.009-.264-.006-.337.09-.327.34.017.467.016.936,0,1.4-.007.219.07.292.284.29.761-.009,1.521,0,2.281-.012.257-.005.344.077.333.334-.025.613.076.55-.544.55-.994,0-1.988-.006-2.983,0-.228,0-.328-.043-.326-.3q.013-3.026,0-6.052c0-.217.067-.286.285-.284q1.6.015,3.188,0c.234,0,.306.077.3.305-.03.646.061.556-.57.56s-1.268.008-1.9,0c-.243,0-.354.059-.342.328.02.457.01.916,0,1.374-.006.215.076.292.289.291.731-.006,1.462,0,2.194,0A1.987,1.987,0,0,1,5979.416,1828.623Z" transform="translate(-5944.319 -1812.844)"/><path class="a" d="M6131.636,1864.975a1.273,1.273,0,0,0,1.182,1.277,2.771,2.771,0,0,0,1.69-.458.71.71,0,0,1-.4,1.065,2.6,2.6,0,0,1-2.209.056,2.086,2.086,0,0,1-1.127-1.517,2.284,2.284,0,0,1,.982-2.6,1.851,1.851,0,0,1,2.809,1.342c.031.182.04.369.08.549.048.217-.037.274-.24.272-.829-.006-1.659,0-2.488,0C6131.825,1864.961,6131.739,1864.969,6131.636,1864.975Zm2.131-.622a3.552,3.552,0,0,0-.1-.428.941.941,0,0,0-1.085-.58,1.089,1.089,0,0,0-.946.861c-.022.195.11.17.224.17.487,0,.973,0,1.459,0C6133.462,1864.374,6133.6,1864.361,6133.767,1864.353Z" transform="translate(-6090.174 -1847.5)"/><path class="a" d="M6574.755,1863.8a5.6,5.6,0,0,0-.97-.349,1.311,1.311,0,0,0-1.558,1.353c-.043,1.226.914,1.725,1.994,1.462.094-.023.188-.053.279-.084.364-.126.363-.127.363.25,0,.546-.025.553-.575.658a2.928,2.928,0,0,1-1.585-.057,2,2,0,0,1-1.344-1.628,2.4,2.4,0,0,1,1.116-2.58,2.54,2.54,0,0,1,2.123.025.307.307,0,0,1,.15.219C6574.767,1863.3,6574.755,1863.545,6574.755,1863.8Z" transform="translate(-6504.986 -1847.547)"/><path class="a" d="M6238.951,1863.848c-.22-.105-.375-.183-.532-.254a1.321,1.321,0,0,0-1.553.178,1.5,1.5,0,0,0-.388,1.592,1.467,1.467,0,0,0,1.991.9c.175-.052.345-.115.565-.189,0,.286.008.534-.005.78,0,.045-.083.106-.138.125a2.657,2.657,0,0,1-2.589-.262,1.84,1.84,0,0,1-.731-1.225,2.675,2.675,0,0,1,.448-2.14,1.863,1.863,0,0,1,1.211-.7,2.758,2.758,0,0,1,1.411.139.389.389,0,0,1,.314.45C6238.935,1863.422,6238.951,1863.606,6238.951,1863.848Z" transform="translate(-6188.863 -1847.562)"/><path class="a" d="M6332.482,1851.481l1.651-1.6c0,.187.007.391,0,.594-.008.186.061.264.254.258.359-.011.719,0,1.128,0a5.535,5.535,0,0,1-.011.64c-.006.053-.132.127-.205.131-.312.014-.624.01-.936,0-.163,0-.231.061-.23.221,0,.7-.006,1.4.014,2.1a.592.592,0,0,0,.768.551,7.05,7.05,0,0,0,.813-.255c0,.226.007.445-.005.663a.221.221,0,0,1-.108.158,1.838,1.838,0,0,1-1.71.069,1.205,1.205,0,0,1-.639-1.136c-.012-.672-.013-1.345,0-2.017.008-.286-.088-.391-.369-.359A2.586,2.586,0,0,1,6332.482,1851.481Z" transform="translate(-6280.145 -1835.578)"/><path class="a" d="M6078.648,1829.032c0-1,.008-2.006-.006-3.009,0-.254.083-.318.319-.3.61.036.562-.117.562.561,0,1.918-.006,3.837,0,5.755,0,.265-.09.337-.337.326-.6-.025-.542.081-.542-.554Q6078.647,1830.42,6078.648,1829.032Z" transform="translate(-6041.175 -1812.826)"/><path class="a" d="M6427.665,1863.945a1.374,1.374,0,0,1-.143-.1c-.765-.711-1.47-.125-1.641.577a3.507,3.507,0,0,0-.069.752c-.009.574-.007,1.149,0,1.723,0,.173-.056.237-.234.245-.65.028-.651.034-.652-.611,0-1.149,0-2.3-.009-3.446,0-.252.063-.341.328-.33.561.025.561.011.565.582,0,.092.009.185.018.356.173-.228.293-.4.424-.558a1.107,1.107,0,0,1,1.735-.092.2.2,0,0,1,.048.323C6427.905,1863.549,6427.795,1863.741,6427.665,1863.945Z" transform="translate(-6367.162 -1847.616)"/><path class="a" d="M6184.644,1606.129a.951.951,0,0,1,.842,1.439,1.939,1.939,0,0,1-1.628,1.256.918.918,0,0,1-1.038-1.084A1.981,1.981,0,0,1,6184.644,1606.129Z" transform="translate(-6139.237 -1606.103)"/><path class="a" d="M6519.035,1866.415c0,.643-.008,1.285,0,1.928,0,.218-.067.29-.283.286-.742-.011-.6.049-.6-.575,0-1.178.007-2.356,0-3.534,0-.21.065-.279.265-.27.709.029.609-.118.613.588,0,.526,0,1.052,0,1.577Z" transform="translate(-6454.932 -1849.101)"/><path class="a" d="M6517.631,1834.915c-.189-.022-.332-.105-.332-.343a.669.669,0,0,1,.613-.627.34.34,0,0,1,.375.351A.727.727,0,0,1,6517.631,1834.915Z" transform="translate(-6454.134 -1820.571)"/></g></svg>