<svg xmlns="http://www.w3.org/2000/svg" width="74.055" height="34.604" viewBox="0 0 74.055 34.604"><defs><style>.a{fill:#585858;}</style></defs><g transform="translate(0)"><path class="a" d="M5272.428,3023.312v.224c0,1.742-.006,3.484,0,5.226a3.027,3.027,0,0,1-.878,2.18,7.342,7.342,0,0,1-1.833,1.349,23.486,23.486,0,0,1-3.366,1.467c-1.727.625-3.463,1.228-5.191,1.854a24.5,24.5,0,0,0-3.619,1.605,9.784,9.784,0,0,0-2.773,2.179,1.521,1.521,0,0,1-.291.288c.025-.083.048-.166.075-.247q1.1-3.367,2.2-6.734c.1-.307.186-.62.3-.924a4.623,4.623,0,0,1,1.751-2.207,10.5,10.5,0,0,1,2.979-1.408c1.587-.495,3.184-.954,4.777-1.427a29.558,29.558,0,0,0,3.253-1.1,6.444,6.444,0,0,0,1.6-.937,3.029,3.029,0,0,0,.9-1.211c.025-.061.052-.122.079-.183Z" transform="translate(-5251.711 -3010.436)"/><path class="a" d="M5368.6,2973.842c.421-.045.855-.093,1.29-.138l3.4-.351c.531-.055,1.06-.121,1.593-.166a3.219,3.219,0,0,1,1.607.307,6.085,6.085,0,0,1,1.878,1.412,14.3,14.3,0,0,1,1.8,2.388,21.7,21.7,0,0,0,1.445,2.128,9.571,9.571,0,0,0,3.493,2.879,8.872,8.872,0,0,0,1.595.521h-.251q-4.362,0-8.724,0a4.613,4.613,0,0,1-1.349-.177,3.559,3.559,0,0,1-2.027-1.693,17.341,17.341,0,0,1-1.018-2.159,12.534,12.534,0,0,0-1.593-2.828,5.581,5.581,0,0,0-1.98-1.691C5369.383,2974.1,5368.987,2973.984,5368.6,2973.842Z" transform="translate(-5352.257 -2966.27)"/><path class="a" d="M5314.5,2915.107v1.7c0,.56-.01,1.12,0,1.68a2.155,2.155,0,0,1-.6,1.547,6.22,6.22,0,0,1-1.55,1.159,27.161,27.161,0,0,1-3.071,1.421c-1.123.463-2.252.915-3.337,1.469a13.519,13.519,0,0,0-2.58,1.654,6.884,6.884,0,0,0-1,1.035.231.231,0,0,1-.126.09l.158-.492c.447-1.371.9-2.741,1.341-4.113a3.647,3.647,0,0,1,1.226-1.731,9.707,9.707,0,0,1,2.357-1.359c1.231-.523,2.476-1.016,3.711-1.529a12.013,12.013,0,0,0,2.123-1.085A3.792,3.792,0,0,0,5314.5,2915.107Z" transform="translate(-5293.785 -2915.107)"/><path class="a" d="M5231.189,2989.722c.428-.047.8-.091,1.171-.13.957-.1,1.914-.2,2.872-.3a5.7,5.7,0,0,1,.81-.045,2.086,2.086,0,0,1,1.368.653,7.832,7.832,0,0,1,1.268,1.731c.48.814.944,1.638,1.444,2.439a7.587,7.587,0,0,0,1.809,2.029,5.739,5.739,0,0,0,1.684.871l-.077.008h-.079q-2.823,0-5.647,0a3.32,3.32,0,0,1-2.093-.647,3.94,3.94,0,0,1-1.054-1.229c-.394-.711-.759-1.438-1.118-2.167a18.835,18.835,0,0,0-1.079-2.07,2.932,2.932,0,0,0-.811-.884C5231.526,2989.892,5231.383,2989.827,5231.189,2989.722Z" transform="translate(-5231.189 -2980.425)"/><path class="a" d="M5633.473,3081.878c.1,0,.183-.012.269-.012h3.861a10.487,10.487,0,0,1,1.724.135,2.27,2.27,0,0,1,1.929,2.622,4.63,4.63,0,0,1-.085.518,2.092,2.092,0,0,1-1.253,1.547c-.072.032-.144.063-.215.1-.014.006-.021.025-.042.052a.888.888,0,0,0,.15.09,1.97,1.97,0,0,1,1.3,1.725c.085.544.141,1.093.21,1.639.01.077.029.152.05.261-.673.028-1.333.008-2,.014a4.591,4.591,0,0,1-.176-.961c-.049-.328-.083-.66-.152-.985a1.577,1.577,0,0,0-1.321-1.292,2.389,2.389,0,0,0-.44-.065c-.639-.01-1.278-.01-1.917-.012a.525.525,0,0,0-.11.031c-.025.53-.008,1.07-.011,1.61s0,1.083,0,1.618a8.071,8.071,0,0,1-1.758.024C5633.422,3090.334,5633.408,3082.2,5633.473,3081.878Zm3.318,1.475v.018c-.429,0-.857,0-1.285,0-.249,0-.265.018-.266.273,0,.585,0,1.171,0,1.757,0,.061,0,.122,0,.183a.139.139,0,0,0,.146.15c.061,0,.122,0,.183,0,.735,0,1.469,0,2.2,0a4.681,4.681,0,0,0,.627-.047.876.876,0,0,0,.794-.726,2.38,2.38,0,0,0,.048-.623.9.9,0,0,0-.882-.929C5637.841,3083.37,5637.315,3083.371,5636.792,3083.353Z" transform="translate(-5585.589 -3062.032)"/><path class="a" d="M5791.649,3084.232v6.286h-1.7c-.009-.095-.026-.186-.026-.278q0-4.059,0-8.118c0-.085.013-.169.02-.266.09-.008.157-.02.226-.02.63,0,1.261,0,1.891,0a.315.315,0,0,1,.32.205q1.417,2.666,2.842,5.327c.161.3.323.6.494.915.106-.108.069-.217.07-.312q0-2.534,0-5.07v-1.013a8.51,8.51,0,0,1,1.687-.017c.057.2.068,8.352.006,8.648-.069.006-.145.018-.22.018-.6,0-1.191,0-1.787,0a.322.322,0,0,1-.326-.2q-1.621-2.929-3.251-5.852c-.053-.1-.112-.188-.168-.282Z" transform="translate(-5723.469 -3062.002)"/><path class="a" d="M5707.126,3085.893a8,8,0,0,1,.248-2.04,3.116,3.116,0,0,1,2.271-2.293,6.27,6.27,0,0,1,3.749.072,3.012,3.012,0,0,1,1.992,1.977,6.762,6.762,0,0,1,.15,3.831,3.3,3.3,0,0,1-1.336,2.01,3.822,3.822,0,0,1-1.61.6,6.414,6.414,0,0,1-2.76-.151,3.371,3.371,0,0,1-1.917-1.256,3.958,3.958,0,0,1-.671-1.666C5707.173,3086.564,5707.152,3086.143,5707.126,3085.893Zm2.022-.214c0,.148-.008.3,0,.446a4.173,4.173,0,0,0,.309,1.455,1.728,1.728,0,0,0,1.163,1.019,3.076,3.076,0,0,0,1.43.051,1.811,1.811,0,0,0,1.413-1.2,4.225,4.225,0,0,0,.254-1.308,5.369,5.369,0,0,0-.234-2.1,1.776,1.776,0,0,0-1.3-1.213,3.107,3.107,0,0,0-1.226-.054,1.871,1.871,0,0,0-1.661,1.495A5.315,5.315,0,0,0,5709.148,3085.68Z" transform="translate(-5650.52 -3061.542)"/><path class="a" d="M5481.05,3090.651h-2.125c1.2-2.907,2.4-5.788,3.594-8.675h2.125q1.782,4.3,3.575,8.627a11.068,11.068,0,0,1-2.115.033c-.071-.164-.149-.338-.224-.514-.179-.427-.363-.854-.531-1.285a.268.268,0,0,0-.3-.192c-.98.005-1.961.007-2.942,0a.285.285,0,0,0-.3.218c-.205.511-.421,1.018-.635,1.526C5481.133,3090.476,5481.091,3090.561,5481.05,3090.651Zm1.25-3.521h.89c.271,0,.542.008.813,0a4.1,4.1,0,0,0,.823-.029,28.191,28.191,0,0,0-1.27-3.044C5483.143,3085.069,5482.734,3086.068,5482.3,3087.13Z" transform="translate(-5449.46 -3062.129)"/><path class="a" d="M5563.982,3081.852h1.8c.006.107.014.2.014.295q0,2.5,0,4.992a5.782,5.782,0,0,1-.148,1.3,2.49,2.49,0,0,1-1.527,1.782,6.383,6.383,0,0,1-4.017.115,2.586,2.586,0,0,1-1.855-2.366c-.032-.34-.044-.682-.044-1.023,0-1.585,0-3.17,0-4.755v-.3a8.976,8.976,0,0,1,1.8-.026c0,.1.014.2.014.3q0,2.4,0,4.808c0,.209.015.419.029.629a1.564,1.564,0,0,0,1.3,1.509,2.762,2.762,0,0,0,1.678-.088,1.264,1.264,0,0,0,.906-1.114c.027-.287.047-.576.048-.864,0-1.62,0-3.24,0-4.86Z" transform="translate(-5519.305 -3062.002)"/><path class="a" d="M5438.134,3082c.032.492.02.968.006,1.477-.957.031-1.9-.008-2.868.022-.008.131-.024.25-.024.368q0,3.2,0,6.408v.4c-.6.017-1.178,0-1.782.008-.008-.132-.021-.25-.021-.368q0-3.2,0-6.409c0-.444.017-.417-.411-.417h-2.367c-.033-.51-.016-.991-.011-1.489Z" transform="translate(-5406.92 -3062.149)"/><path class="a" d="M5683.865,3174.96v2.89h-.533v-3.71a5.424,5.424,0,0,1,.6.007c.067.008.141.094.185.161.474.735.941,1.474,1.412,2.211.121.19.245.377.368.565l.058-.011c.006-.09.017-.18.017-.27q0-1.155,0-2.31v-.334h.488a35.242,35.242,0,0,1,.009,3.705,3.765,3.765,0,0,1-.557-.009c-.074-.01-.146-.113-.2-.19-.483-.739-.961-1.482-1.44-2.224-.109-.167-.22-.333-.33-.5Z" transform="translate(-5629.556 -3143.327)"/><path class="a" d="M5750.463,3177.858a2.291,2.291,0,0,1-.258.027c-.211,0-.312.038-.322-.28a3.332,3.332,0,0,0-.09-.595.822.822,0,0,0-.71-.678,5.05,5.05,0,0,0-1.158-.035v1.569h-.538v-3.693a1.1,1.1,0,0,1,.155-.022c.595,0,1.19-.005,1.785.008a1.971,1.971,0,0,1,.565.1.878.878,0,0,1,.607.838.9.9,0,0,1-.462.927c-.083.046-.167.087-.271.14a.769.769,0,0,0,.112.095.879.879,0,0,1,.493.727C5750.4,3177.269,5750.431,3177.553,5750.463,3177.858Zm-2.525-2.039c.509,0,.989.013,1.468-.009a.569.569,0,0,0,.358-.187.671.671,0,0,0,.08-.718.493.493,0,0,0-.507-.3c-.34-.008-.682-.009-1.023-.013-.12,0-.241,0-.376,0Z" transform="translate(-5685.992 -3143.341)"/><path class="a" d="M5486.613,3175.581c-.022.2-.031.4-.069.6a1.483,1.483,0,0,1-1.288,1.272,2.779,2.779,0,0,1-.993,0,1.385,1.385,0,0,1-1.162-1.039,2.89,2.89,0,0,1-.048-1.478,1.509,1.509,0,0,1,1.391-1.263,2.551,2.551,0,0,1,1.118.077,1.311,1.311,0,0,1,.874.8A2.926,2.926,0,0,1,5486.613,3175.581Zm-.6.048c-.019-.225-.021-.418-.053-.607a.979.979,0,0,0-.616-.845,1.57,1.57,0,0,0-1.1,0,.829.829,0,0,0-.524.52,2.546,2.546,0,0,0,.017,1.769.839.839,0,0,0,.563.511,1.637,1.637,0,0,0,.98.008.883.883,0,0,0,.646-.691C5485.975,3176.068,5485.99,3175.831,5486.016,3175.629Z" transform="translate(-5453.032 -3142.891)"/><path class="a" d="M5781.206,3174.2v.38c-.093.006-.186.018-.277.019-.412,0-.823.01-1.235,0a.969.969,0,0,0-1.046.9,3.007,3.007,0,0,0,0,1.045.974.974,0,0,0,.941.9,6.273,6.273,0,0,0,.629.026c.137,0,.275-.009.431-.014v-1.216c-.371-.074-.749.009-1.128-.053v-.387h1.654a11.668,11.668,0,0,1,.027,2.064,1,1,0,0,1-.189.035c-.508,0-1.016,0-1.524-.018a1.362,1.362,0,0,1-1.427-1.236,3.275,3.275,0,0,1,.037-1.382,1.3,1.3,0,0,1,1.266-1.071c.593-.045,1.19-.015,1.785-.018C5781.16,3174.171,5781.175,3174.186,5781.206,3174.2Z" transform="translate(-5712.964 -3143.352)"/><path class="a" d="M5542.258,3177.87v-.412c.1-.005.187-.014.272-.014.412,0,.823,0,1.234,0a2.7,2.7,0,0,0,.469-.047.535.535,0,0,0,.432-.577.518.518,0,0,0-.432-.571,3.535,3.535,0,0,0-.47-.031c-.271-.013-.544,0-.811-.041a.965.965,0,0,1-.653-1.579.934.934,0,0,1,.622-.4,3.557,3.557,0,0,1,.521-.054c.463-.007.927,0,1.392,0,.068,0,.137.008.224.013v.411c-.092.005-.176.015-.261.015-.455,0-.91,0-1.365,0a1.387,1.387,0,0,0-.287.022.564.564,0,0,0-.412.769.427.427,0,0,0,.325.278,3.792,3.792,0,0,0,.519.062c.3.02.594.02.891.047a.846.846,0,0,1,.751.732,1.994,1.994,0,0,1,0,.624.875.875,0,0,1-.778.715A18.909,18.909,0,0,1,5542.258,3177.87Z" transform="translate(-5505.104 -3143.328)"/><path class="a" d="M5605.959,3176.986c-.572,0-1.123,0-1.672,0a.2.2,0,0,0-.209.158c-.08.2-.178.4-.245.608a.278.278,0,0,1-.331.22c-.1-.009-.2,0-.356,0l1.542-3.726h.777c.482,1.211.97,2.433,1.463,3.675a.837.837,0,0,1-.5.034c-.051-.008-.106-.084-.131-.141-.079-.175-.143-.357-.214-.535C5606.048,3177.187,5606.008,3177.1,5605.959,3176.986Zm-1.644-.457a10.566,10.566,0,0,0,1.436-.011,10.281,10.281,0,0,0-.714-1.837Z" transform="translate(-5558.907 -3143.422)"/><path class="a" d="M5821.738,3177.856l1.549-3.736c.192,0,.375.008.557,0a.255.255,0,0,1,.29.193c.348.9.708,1.787,1.065,2.679.08.2.16.406.239.611.026.071.047.145.072.226a1.007,1.007,0,0,1-.119.028c-.432.035-.432.035-.587-.368-.064-.163-.133-.323-.194-.487a.169.169,0,0,0-.177-.125q-.787,0-1.576,0c-.108,0-.152.068-.187.153-.084.211-.176.419-.252.633a.255.255,0,0,1-.292.2C5822.014,3177.849,5821.9,3177.856,5821.738,3177.856Zm1.965-3.26-.083,0c-.233.6-.465,1.19-.716,1.835.509,0,.965.009,1.473-.007C5824.141,3175.782,5823.921,3175.189,5823.7,3174.6Z" transform="translate(-5751.5 -3143.31)"/><path class="a" d="M5454.112,3174.148c.074-.006.133-.015.193-.015.517,0,1.033-.008,1.55,0a1.778,1.778,0,0,1,.563.093.991.991,0,0,1,.639.992,1.7,1.7,0,0,1-.087.591.933.933,0,0,1-.917.658c-.35.02-.7.012-1.05.018-.1,0-.207.009-.333.014-.059.446.008.883-.043,1.322a.834.834,0,0,1-.486.02A36.28,36.28,0,0,1,5454.112,3174.148Zm.549,1.9a5.566,5.566,0,0,0,1.39-.044.415.415,0,0,0,.33-.307,1.687,1.687,0,0,0,.06-.564.562.562,0,0,0-.594-.546c-.218-.015-.437-.009-.656-.01-.171,0-.344,0-.53,0Z" transform="translate(-5427.568 -3143.323)"/><path class="a" d="M5654.934,3177.434v.4a1.268,1.268,0,0,1-.189.03c-.455,0-.911,0-1.365-.022a1.178,1.178,0,0,1-1.094-.732,2.546,2.546,0,0,1,.027-2.184,1.292,1.292,0,0,1,1.039-.753,14.706,14.706,0,0,1,1.583-.046v.417a1.959,1.959,0,0,1-.215.024c-.324,0-.647,0-.971.005a.92.92,0,0,0-1.022.9,1.357,1.357,0,0,0-.022.182.338.338,0,0,0,.033.1h2.2v.446h-2.2a.985.985,0,0,0,.778,1.19c.363.044.733.03,1.1.04C5654.717,3177.437,5654.819,3177.434,5654.934,3177.434Z" transform="translate(-5601.996 -3143.319)"/><path class="a" d="M5718.937,3174.576c-.195,0-.368,0-.542,0-.271,0-.543,0-.813.013a.831.831,0,0,0-.792.622c-.051.163-.071.336-.113.543.773.032,1.505,0,2.258.02v.421c-.086,0-.178.014-.271.014h-1.654c-.094,0-.187.01-.275.014a.971.971,0,0,0,.815,1.18c.354.039.716.027,1.074.037.1,0,.205,0,.319,0v.393a.977.977,0,0,1-.192.035c-.456,0-.912,0-1.367-.02a1.187,1.187,0,0,1-1.109-.753,2.588,2.588,0,0,1,.011-2.115,1.306,1.306,0,0,1,1.086-.805,13.98,13.98,0,0,1,1.563-.04Z" transform="translate(-5658.387 -3143.327)"/><path class="a" d="M5518.506,3174.257h.512c.008.113.018.215.02.316q.012,1.049.02,2.1c0,.043,0,.087.006.131a.668.668,0,0,0,.642.7,7.454,7.454,0,0,0,.758.043c.12,0,.24,0,.375,0v.381a4.223,4.223,0,0,1-1.667-.064,1.042,1.042,0,0,1-.654-.853,2.359,2.359,0,0,1-.039-.365c0-.769,0-1.538,0-2.306A.354.354,0,0,1,5518.506,3174.257Z" transform="translate(-5484.308 -3143.435)"/><path class="a" d="M5581.324,3174.143l-1.826,1.74,1.931,1.878a.766.766,0,0,1-.884-.151q-.752-.772-1.5-1.545c-.042-.043-.08-.089-.129-.144.052-.058.1-.11.144-.159.479-.487.965-.967,1.434-1.463a.575.575,0,0,1,.527-.216,2.209,2.209,0,0,0,.282,0Z" transform="translate(-5537.557 -3143.276)"/><path class="a" d="M5812.891,3178h-.529v-3.7h.529Z" transform="translate(-5743.238 -3143.477)"/><path class="a" d="M5574.269,3178.034h-.53v-3.689h.53Z" transform="translate(-5532.996 -3143.512)"/></g></svg>