<svg xmlns="http://www.w3.org/2000/svg" width="47.342" height="26.13" viewBox="0 0 47.342 26.13"><defs><style>.a{fill:#585858;fill-rule:evenodd;}</style></defs><path class="a" d="M18.093.067h.1l-.1.194ZM47.342,19.851a9.371,9.371,0,0,0-1.049-3.285Q43.581,12.179,40.88,7.8c-2.079-3.216.2-4.023,3.042-3.838.408.019.69.039,1.1.058C44.514,2.681,44.126,1.34,43.62,0H39.607a7.45,7.45,0,0,0-3.158.622c-3.187,1.351-3.488,3.731-1.535,7.424q2.1,3.309,4.2,6.637c1.331,2.536.466,4.995-2.546,4.995H18.093v6.452h21.66a11.114,11.114,0,0,0,2.662-.2c2.925-.651,4.664-2.39,4.927-4.752V19.851ZM18.093,13.244c.428,2.8,2.206,5.082,6.685,5.393,2.449.175,4.927-.039,7.395-.058V.067L27.548.125v14.43a9.684,9.684,0,0,1-3.333-.428c-1.885-.748-1.778-2.41-1.03-5.3C24.1,5.888,25,2.943,25.916,0H21.047L18.919,6.461a20.844,20.844,0,0,0-.826,3.634v3.148ZM10.893.067h7.2V.261L11.165,14.555h6.6l-1.574,4.023h-5.3Zm7.2,10.028a12.192,12.192,0,0,0,0,3.148Zm0,9.581v6.452h-7.2V19.676ZM6.1.067h4.791V18.578H3.586l7-14.43-6.443.058Zm4.791,19.609v6.452H0l3.1-6.452Z" transform="translate(0 0.001)"/></svg>